<svg id="Grupo_38" data-name="Grupo 38" xmlns="http://www.w3.org/2000/svg" width="29.102" height="26.882" viewBox="0 0 29.102 26.882">
  <g id="Grupo_37" data-name="Grupo 37" transform="translate(0 0)">
    <g id="Grupo_36" data-name="Grupo 36" transform="translate(0 0)">
      <g id="Grupo_35" data-name="Grupo 35" transform="translate(0 0)">
        <g id="Grupo_34" data-name="Grupo 34" transform="translate(0)">
          <path id="Trazado_95" data-name="Trazado 95" d="M3.965.219a.855.855,0,0,0-.632.288,12.763,12.763,0,0,0,0,17.2A.847.847,0,0,0,4.2,18a.912.912,0,0,0,.646-.688.979.979,0,0,0-.273-.93,10.768,10.768,0,0,1,0-14.549A.985.985,0,0,0,4.6.506.854.854,0,0,0,3.965.219Zm21.17,0A.854.854,0,0,0,24.5.506a.985.985,0,0,0,.018,1.328,10.768,10.768,0,0,1,0,14.549.981.981,0,0,0-.251.92.911.911,0,0,0,.636.676.845.845,0,0,0,.861-.272,12.764,12.764,0,0,0,0-17.2.854.854,0,0,0-.632-.288ZM6.743,2.492a.854.854,0,0,0-.629.284,9.4,9.4,0,0,0,0,12.663.847.847,0,0,0,.871.293.912.912,0,0,0,.646-.689.979.979,0,0,0-.274-.93,7.4,7.4,0,0,1,0-10.01.985.985,0,0,0,.018-1.328A.854.854,0,0,0,6.743,2.492Zm15.615,0a.854.854,0,0,0-.632.284A.985.985,0,0,0,21.743,4.1a7.4,7.4,0,0,1,0,10.01.979.979,0,0,0-.273.93.912.912,0,0,0,.646.688.847.847,0,0,0,.871-.293,9.4,9.4,0,0,0,0-12.663.854.854,0,0,0-.629-.284ZM19.619,4.758a.854.854,0,0,0-.632.284v0A.985.985,0,0,0,19,6.374a4.034,4.034,0,0,1,0,5.467.987.987,0,0,0,0,1.331.843.843,0,0,0,1.248,0,6.044,6.044,0,0,0,0-8.131A.854.854,0,0,0,19.619,4.758Zm-10.134,0a.854.854,0,0,0-.632.284,6.039,6.039,0,0,0,0,8.127.843.843,0,0,0,1.247,0,.987.987,0,0,0,0-1.331,4.034,4.034,0,0,1,0-5.467.985.985,0,0,0,.018-1.328.854.854,0,0,0-.629-.284Zm5.062.522a3.626,3.626,0,0,0-.909,7.14V27.1h1.819V12.424a3.626,3.626,0,0,0-.909-7.14Zm0,1.819a1.817,1.817,0,1,1-1.819,1.815A1.8,1.8,0,0,1,14.546,7.1Z" transform="translate(0.001 -0.219)" fill="#00d2d2"/>
        </g>
      </g>
    </g>
  </g>
</svg>
