<svg xmlns="http://www.w3.org/2000/svg" xmlns:xlink="http://www.w3.org/1999/xlink" width="1949" height="485.063" viewBox="0 0 1949 485.063">
  <defs>
    <filter id="Trazado_1" x="424" y="0" width="876.462" height="485.063" filterUnits="userSpaceOnUse">
      <feOffset dx="-24" input="SourceAlpha"/>
      <feGaussianBlur stdDeviation="28" result="blur"/>
      <feFlood flood-opacity="0.161"/>
      <feComposite operator="in" in2="blur"/>
      <feComposite in="SourceGraphic"/>
    </filter>
    <filter id="Trazado_1-2" x="445" y="0" width="876.462" height="485.063" filterUnits="userSpaceOnUse">
      <feOffset dx="-24" input="SourceAlpha"/>
      <feGaussianBlur stdDeviation="28" result="blur-2"/>
      <feFlood flood-opacity="0.161"/>
      <feComposite operator="in" in2="blur-2"/>
      <feComposite in="SourceGraphic"/>
    </filter>
  </defs>
  <g id="Grupo_30" data-name="Grupo 30" transform="translate(0 18)">
    <g transform="matrix(1, 0, 0, 1, 0, -18)" filter="url(#Trazado_1)">
      <g id="Trazado_1-3" data-name="Trazado 1" transform="translate(532 84)" fill="#09355a">
        <path d="M 354.2312622070313 316.5625305175781 C 330.2122497558594 316.5625305175781 306.2085266113281 315.4796142578125 282.8869018554688 313.3437805175781 C 260.1590881347656 311.2624206542969 237.8035278320313 308.1567993164063 216.4414367675781 304.1130676269531 C 195.4691772460938 300.1431579589844 175.2419891357422 295.2297973632813 156.3218994140625 289.5092468261719 C 137.5849914550781 283.8441467285156 119.9665374755859 277.3387145996094 103.956169128418 270.1734313964844 C 87.95144653320313 263.0107116699219 73.42253112792969 255.1301574707031 60.77326202392578 246.7507934570313 C 48.0113525390625 238.2967987060547 37.05235290527344 229.2613372802734 28.20062637329102 219.8953399658203 C 19.19635391235352 210.3679809570313 12.28262615203857 200.4015197753906 7.651443958282471 190.2728881835938 C 5.299807548522949 185.1297912597656 3.504807710647583 179.8666076660156 2.316443920135498 174.6295166015625 C 1.111171245574951 169.3178863525391 0.4999894797801971 163.9017028808594 0.4999894797801971 158.53125 C 0.4999894797801971 153.1607971191406 1.111171245574951 147.7446136474609 2.316443920135498 142.4329833984375 C 3.504807710647583 137.1959838867188 5.299807548522949 131.9327087402344 7.651443958282471 126.7896118164063 C 12.28262615203857 116.6609802246094 19.19635391235352 106.6945190429688 28.20062637329102 97.16716003417969 C 37.05235290527344 87.80124664306641 48.0113525390625 78.76579284667969 60.77326202392578 70.31179809570313 C 73.42253112792969 61.93234252929688 87.95144653320313 54.05179595947266 103.956169128418 46.88906860351563 C 119.9665374755859 39.72388458251953 137.5849914550781 33.21834182739258 156.3218994140625 27.55324935913086 C 175.2420806884766 21.83270454406738 195.4691772460938 16.91934013366699 216.4414367675781 12.94943141937256 C 237.8035278320313 8.905795097351074 260.1590881347656 5.800068378448486 282.8869018554688 3.718704462051392 C 306.2085266113281 1.582886338233948 330.2122497558594 0.4999772608280182 354.2312622070313 0.4999772608280182 C 378.2502746582031 0.4999772608280182 402.2539978027344 1.582886338233948 425.5756225585938 3.718704462051392 C 448.3034362792969 5.800068378448486 470.6589965820313 8.905795097351074 492.0210876464844 12.94943141937256 C 512.9933471679688 16.91934013366699 533.220458984375 21.83270454406738 552.140625 27.55324935913086 C 570.8775634765625 33.21834182739258 588.4959716796875 39.72388458251953 604.50634765625 46.88906860351563 C 620.5111083984375 54.05179595947266 635.0399780273438 61.93234252929688 647.6892700195313 70.31179809570313 C 660.451171875 78.76579284667969 671.41015625 87.80124664306641 680.2619018554688 97.16716003417969 C 689.2661743164063 106.6945190429688 696.1798706054688 116.6609802246094 700.8110961914063 126.7896118164063 C 703.1627197265625 131.9327087402344 704.9577026367188 137.1959838867188 706.1460571289063 142.4329833984375 C 707.3513793945313 147.7446136474609 707.9625244140625 153.1607971191406 707.9625244140625 158.53125 C 707.9625244140625 163.9017028808594 707.3513793945313 169.3178863525391 706.1460571289063 174.6295166015625 C 704.9577026367188 179.8666076660156 703.1627197265625 185.1297912597656 700.8110961914063 190.2728881835938 C 696.1798706054688 200.4015197753906 689.2661743164063 210.3679809570313 680.2619018554688 219.8953399658203 C 671.41015625 229.2613372802734 660.451171875 238.2967987060547 647.6892700195313 246.7507934570313 C 635.0399780273438 255.1301574707031 620.5111083984375 263.0107116699219 604.50634765625 270.1734313964844 C 588.4959716796875 277.3387145996094 570.8775634765625 283.8441467285156 552.140625 289.5092468261719 C 533.2205200195313 295.2297973632813 512.9933471679688 300.1431579589844 492.0210876464844 304.1130676269531 C 470.6589965820313 308.1567993164063 448.3034362792969 311.2624206542969 425.5756225585938 313.3437805175781 C 402.2539978027344 315.4796142578125 378.2502746582031 316.5625305175781 354.2312622070313 316.5625305175781 Z" stroke="none"/>
        <path d="M 354.2312622070313 0.999969482421875 C 330.2274475097656 0.999969482421875 306.2390747070313 2.082244873046875 282.9325256347656 4.21661376953125 C 260.220458984375 6.2965087890625 237.8809814453125 9.39996337890625 216.5344543457031 13.44070434570313 C 195.5795288085938 17.4073486328125 175.3698120117188 22.31643676757813 156.4666137695313 28.03189086914063 C 137.7498779296875 33.6907958984375 120.1515502929688 40.18887329101563 104.1604614257813 47.34552001953125 C 88.18060302734375 54.4970703125 73.6759033203125 62.36424255371094 61.04937744140625 70.72860717773438 C 48.31927490234375 79.16152954101563 37.3895263671875 88.17234802246094 28.56396484375 97.5106201171875 C 19.5975341796875 106.9980621337891 12.71441650390625 116.9188842773438 8.106201171875 126.9975280761719 C 5.76873779296875 132.1095275878906 3.98492431640625 137.3399810791016 2.8040771484375 142.5436096191406 C 1.60699462890625 147.8189697265625 1 153.1979827880859 1 158.53125 C 1 163.8645172119141 1.60699462890625 169.2435302734375 2.8040771484375 174.5188903808594 C 3.98492431640625 179.7225189208984 5.76873779296875 184.9529724121094 8.106201171875 190.0649719238281 C 12.71441650390625 200.1437072753906 19.5975341796875 210.0645141601563 28.56396484375 219.5518798828125 C 37.3895263671875 228.8901672363281 48.31927490234375 237.9009704589844 61.04937744140625 246.333984375 C 73.6759033203125 254.6982421875 88.18060302734375 262.5655212402344 104.1604614257813 269.7170715332031 C 120.1515502929688 276.8736267089844 137.7498779296875 283.3717041015625 156.4666137695313 289.0307006835938 C 175.3698120117188 294.7460632324219 195.5795288085938 299.6552429199219 216.5344543457031 303.6217956542969 C 237.8809814453125 307.6625366210938 260.220458984375 310.7659912109375 282.9325256347656 312.8458862304688 C 306.2390747070313 314.9802551269531 330.2274475097656 316.0625305175781 354.2312622070313 316.0625305175781 C 378.2350769042969 316.0625305175781 402.2234497070313 314.9802551269531 425.5299987792969 312.8458862304688 C 448.2420654296875 310.7659912109375 470.58154296875 307.6625366210938 491.9281005859375 303.6217956542969 C 512.8829956054688 299.6552429199219 533.0927124023438 294.7460632324219 551.9959106445313 289.0307006835938 C 570.712646484375 283.3717041015625 588.3109741210938 276.8736267089844 604.3020629882813 269.7170715332031 C 620.2819213867188 262.5655212402344 634.78662109375 254.6982421875 647.4131469726563 246.333984375 C 660.1432495117188 237.9009704589844 671.072998046875 228.8901672363281 679.8985595703125 219.5518798828125 C 688.864990234375 210.0645141601563 695.7481079101563 200.1437072753906 700.3563232421875 190.0649719238281 C 702.6937866210938 184.9529724121094 704.4776000976563 179.7225189208984 705.658447265625 174.5188903808594 C 706.8555297851563 169.2435302734375 707.4625244140625 163.8645172119141 707.4625244140625 158.53125 C 707.4625244140625 153.1979827880859 706.8555297851563 147.8189697265625 705.658447265625 142.5436096191406 C 704.4776000976563 137.3399810791016 702.6937866210938 132.1095275878906 700.3563232421875 126.9975280761719 C 695.7481079101563 116.9188842773438 688.864990234375 106.9980621337891 679.8985595703125 97.5106201171875 C 671.072998046875 88.17234802246094 660.1432495117188 79.16152954101563 647.4131469726563 70.72860717773438 C 634.78662109375 62.36424255371094 620.2819213867188 54.4970703125 604.3020629882813 47.34552001953125 C 588.3109741210938 40.18887329101563 570.712646484375 33.6907958984375 551.9959106445313 28.03189086914063 C 533.0927124023438 22.31643676757813 512.8829956054688 17.4073486328125 491.9281005859375 13.44070434570313 C 470.58154296875 9.39996337890625 448.2420654296875 6.2965087890625 425.5299987792969 4.21661376953125 C 402.2234497070313 2.082244873046875 378.2350769042969 0.999969482421875 354.2312622070313 0.999969482421875 M 354.2312622070313 -3.0517578125e-05 C 549.8677978515625 -3.0517578125e-05 708.4625244140625 70.97688293457031 708.4625244140625 158.53125 C 708.4625244140625 246.085693359375 549.8677978515625 317.0625305175781 354.2312622070313 317.0625305175781 C 158.5947265625 317.0625305175781 0 246.085693359375 0 158.53125 C 0 70.97688293457031 158.5947265625 -3.0517578125e-05 354.2312622070313 -3.0517578125e-05 Z" stroke="none" fill="#707070"/>
      </g>
    </g>
    <path id="Trazado_108" data-name="Trazado 108" d="M0,0H1621V458.539L-307,461Z" transform="translate(307)" fill="#00a5e0"/>
    <g id="Grupo_73" data-name="Grupo 73" transform="translate(21)">
      <g transform="matrix(1, 0, 0, 1, -21, -18)" filter="url(#Trazado_1-2)">
        <g id="Trazado_1-4" data-name="Trazado 1" transform="translate(553 84)" fill="#09355a">
          <path d="M 354.2312622070313 316.5625305175781 C 330.2122497558594 316.5625305175781 306.2085266113281 315.4796142578125 282.8869018554688 313.3437805175781 C 260.1590881347656 311.2624206542969 237.8035278320313 308.1567993164063 216.4414367675781 304.1130676269531 C 195.4691772460938 300.1431579589844 175.2419891357422 295.2297973632813 156.3218994140625 289.5092468261719 C 137.5849914550781 283.8441467285156 119.9665374755859 277.3387145996094 103.956169128418 270.1734313964844 C 87.95144653320313 263.0107116699219 73.42253112792969 255.1301574707031 60.77326202392578 246.7507934570313 C 48.0113525390625 238.2967987060547 37.05235290527344 229.2613372802734 28.20062637329102 219.8953399658203 C 19.19635391235352 210.3679809570313 12.28262615203857 200.4015197753906 7.651443958282471 190.2728881835938 C 5.299807548522949 185.1297912597656 3.504807710647583 179.8666076660156 2.316443920135498 174.6295166015625 C 1.111171245574951 169.3178863525391 0.4999894797801971 163.9017028808594 0.4999894797801971 158.53125 C 0.4999894797801971 153.1607971191406 1.111171245574951 147.7446136474609 2.316443920135498 142.4329833984375 C 3.504807710647583 137.1959838867188 5.299807548522949 131.9327087402344 7.651443958282471 126.7896118164063 C 12.28262615203857 116.6609802246094 19.19635391235352 106.6945190429688 28.20062637329102 97.16716003417969 C 37.05235290527344 87.80124664306641 48.0113525390625 78.76579284667969 60.77326202392578 70.31179809570313 C 73.42253112792969 61.93234252929688 87.95144653320313 54.05179595947266 103.956169128418 46.88906860351563 C 119.9665374755859 39.72388458251953 137.5849914550781 33.21834182739258 156.3218994140625 27.55324935913086 C 175.2420806884766 21.83270454406738 195.4691772460938 16.91934013366699 216.4414367675781 12.94943141937256 C 237.8035278320313 8.905795097351074 260.1590881347656 5.800068378448486 282.8869018554688 3.718704462051392 C 306.2085266113281 1.582886338233948 330.2122497558594 0.4999772608280182 354.2312622070313 0.4999772608280182 C 378.2502746582031 0.4999772608280182 402.2539978027344 1.582886338233948 425.5756225585938 3.718704462051392 C 448.3034362792969 5.800068378448486 470.6589965820313 8.905795097351074 492.0210876464844 12.94943141937256 C 512.9933471679688 16.91934013366699 533.220458984375 21.83270454406738 552.140625 27.55324935913086 C 570.8775634765625 33.21834182739258 588.4959716796875 39.72388458251953 604.50634765625 46.88906860351563 C 620.5111083984375 54.05179595947266 635.0399780273438 61.93234252929688 647.6892700195313 70.31179809570313 C 660.451171875 78.76579284667969 671.41015625 87.80124664306641 680.2619018554688 97.16716003417969 C 689.2661743164063 106.6945190429688 696.1798706054688 116.6609802246094 700.8110961914063 126.7896118164063 C 703.1627197265625 131.9327087402344 704.9577026367188 137.1959838867188 706.1460571289063 142.4329833984375 C 707.3513793945313 147.7446136474609 707.9625244140625 153.1607971191406 707.9625244140625 158.53125 C 707.9625244140625 163.9017028808594 707.3513793945313 169.3178863525391 706.1460571289063 174.6295166015625 C 704.9577026367188 179.8666076660156 703.1627197265625 185.1297912597656 700.8110961914063 190.2728881835938 C 696.1798706054688 200.4015197753906 689.2661743164063 210.3679809570313 680.2619018554688 219.8953399658203 C 671.41015625 229.2613372802734 660.451171875 238.2967987060547 647.6892700195313 246.7507934570313 C 635.0399780273438 255.1301574707031 620.5111083984375 263.0107116699219 604.50634765625 270.1734313964844 C 588.4959716796875 277.3387145996094 570.8775634765625 283.8441467285156 552.140625 289.5092468261719 C 533.2205200195313 295.2297973632813 512.9933471679688 300.1431579589844 492.0210876464844 304.1130676269531 C 470.6589965820313 308.1567993164063 448.3034362792969 311.2624206542969 425.5756225585938 313.3437805175781 C 402.2539978027344 315.4796142578125 378.2502746582031 316.5625305175781 354.2312622070313 316.5625305175781 Z" stroke="none"/>
          <path d="M 354.2312622070313 0.999969482421875 C 330.2274475097656 0.999969482421875 306.2390747070313 2.082244873046875 282.9325256347656 4.21661376953125 C 260.220458984375 6.2965087890625 237.8809814453125 9.39996337890625 216.5344543457031 13.44070434570313 C 195.5795288085938 17.4073486328125 175.3698120117188 22.31643676757813 156.4666137695313 28.03189086914063 C 137.7498779296875 33.6907958984375 120.1515502929688 40.18887329101563 104.1604614257813 47.34552001953125 C 88.18060302734375 54.4970703125 73.6759033203125 62.36424255371094 61.04937744140625 70.72860717773438 C 48.31927490234375 79.16152954101563 37.3895263671875 88.17234802246094 28.56396484375 97.5106201171875 C 19.5975341796875 106.9980621337891 12.71441650390625 116.9188842773438 8.106201171875 126.9975280761719 C 5.76873779296875 132.1095275878906 3.98492431640625 137.3399810791016 2.8040771484375 142.5436096191406 C 1.60699462890625 147.8189697265625 1 153.1979827880859 1 158.53125 C 1 163.8645172119141 1.60699462890625 169.2435302734375 2.8040771484375 174.5188903808594 C 3.98492431640625 179.7225189208984 5.76873779296875 184.9529724121094 8.106201171875 190.0649719238281 C 12.71441650390625 200.1437072753906 19.5975341796875 210.0645141601563 28.56396484375 219.5518798828125 C 37.3895263671875 228.8901672363281 48.31927490234375 237.9009704589844 61.04937744140625 246.333984375 C 73.6759033203125 254.6982421875 88.18060302734375 262.5655212402344 104.1604614257813 269.7170715332031 C 120.1515502929688 276.8736267089844 137.7498779296875 283.3717041015625 156.4666137695313 289.0307006835938 C 175.3698120117188 294.7460632324219 195.5795288085938 299.6552429199219 216.5344543457031 303.6217956542969 C 237.8809814453125 307.6625366210938 260.220458984375 310.7659912109375 282.9325256347656 312.8458862304688 C 306.2390747070313 314.9802551269531 330.2274475097656 316.0625305175781 354.2312622070313 316.0625305175781 C 378.2350769042969 316.0625305175781 402.2234497070313 314.9802551269531 425.5299987792969 312.8458862304688 C 448.2420654296875 310.7659912109375 470.58154296875 307.6625366210938 491.9281005859375 303.6217956542969 C 512.8829956054688 299.6552429199219 533.0927124023438 294.7460632324219 551.9959106445313 289.0307006835938 C 570.712646484375 283.3717041015625 588.3109741210938 276.8736267089844 604.3020629882813 269.7170715332031 C 620.2819213867188 262.5655212402344 634.78662109375 254.6982421875 647.4131469726563 246.333984375 C 660.1432495117188 237.9009704589844 671.072998046875 228.8901672363281 679.8985595703125 219.5518798828125 C 688.864990234375 210.0645141601563 695.7481079101563 200.1437072753906 700.3563232421875 190.0649719238281 C 702.6937866210938 184.9529724121094 704.4776000976563 179.7225189208984 705.658447265625 174.5188903808594 C 706.8555297851563 169.2435302734375 707.4625244140625 163.8645172119141 707.4625244140625 158.53125 C 707.4625244140625 153.1979827880859 706.8555297851563 147.8189697265625 705.658447265625 142.5436096191406 C 704.4776000976563 137.3399810791016 702.6937866210938 132.1095275878906 700.3563232421875 126.9975280761719 C 695.7481079101563 116.9188842773438 688.864990234375 106.9980621337891 679.8985595703125 97.5106201171875 C 671.072998046875 88.17234802246094 660.1432495117188 79.16152954101563 647.4131469726563 70.72860717773438 C 634.78662109375 62.36424255371094 620.2819213867188 54.4970703125 604.3020629882813 47.34552001953125 C 588.3109741210938 40.18887329101563 570.712646484375 33.6907958984375 551.9959106445313 28.03189086914063 C 533.0927124023438 22.31643676757813 512.8829956054688 17.4073486328125 491.9281005859375 13.44070434570313 C 470.58154296875 9.39996337890625 448.2420654296875 6.2965087890625 425.5299987792969 4.21661376953125 C 402.2234497070313 2.082244873046875 378.2350769042969 0.999969482421875 354.2312622070313 0.999969482421875 M 354.2312622070313 -3.0517578125e-05 C 549.8677978515625 -3.0517578125e-05 708.4625244140625 70.97688293457031 708.4625244140625 158.53125 C 708.4625244140625 246.085693359375 549.8677978515625 317.0625305175781 354.2312622070313 317.0625305175781 C 158.5947265625 317.0625305175781 0 246.085693359375 0 158.53125 C 0 70.97688293457031 158.5947265625 -3.0517578125e-05 354.2312622070313 -3.0517578125e-05 Z" stroke="none" fill="#707070"/>
        </g>
      </g>
      <path id="Trazado_108-2" data-name="Trazado 108" d="M0,0H1621V458.539L-307,461Z" transform="translate(307)" fill="#03b0ee"/>
    </g>
  </g>
</svg>
