<svg xmlns="http://www.w3.org/2000/svg" width="24.456" height="28.338" viewBox="0 0 24.456 28.338">
  <g id="noun_Button_2211254" transform="translate(-9.099 -2.599)">
    <path id="Trazado_118" data-name="Trazado 118" d="M33.556,22.039a3.122,3.122,0,0,0-3.106-3.106,2.828,2.828,0,0,0-1.314.3,3.06,3.06,0,0,0-2.658-1.463,2.828,2.828,0,0,0-1.314.3,3.181,3.181,0,0,0-2.24-1.463,7.7,7.7,0,0,0-4.419-14,7.646,7.646,0,0,0-7.644,7.674,7.748,7.748,0,0,0,4.6,7.047v6.39L14.445,22.7a3.167,3.167,0,0,0-3.971-.388,3.1,3.1,0,0,0-1.344,2.15,3.171,3.171,0,0,0,.687,2.449l3.016,3.583a1.149,1.149,0,0,0,.866.418,1.207,1.207,0,0,0,.747-.269,1.17,1.17,0,0,0,.149-1.612l-3.016-3.583a.788.788,0,0,1-.179-.687.961.961,0,0,1,.358-.6.9.9,0,0,1,1.1.09l2.18,2.15a1.552,1.552,0,0,0,1.732.328,1.6,1.6,0,0,0,.985-1.493V11.319a.855.855,0,0,1,.836-.836.982.982,0,0,1,.6.239.834.834,0,0,1,.239.6v9.645a1.135,1.135,0,0,0,2.269,0V19.65a.836.836,0,1,1,1.672,0v2.508a1.135,1.135,0,1,0,2.269,0V20.844a.836.836,0,0,1,1.672,0v2.508a1.135,1.135,0,0,0,2.269,0V22.039a.836.836,0,1,1,1.672,0V29.8a1.135,1.135,0,1,0,2.269,0ZM18.566,8.213a3.122,3.122,0,0,0-3.106,3.106v3.344a5.4,5.4,0,1,1,6.211-.03V11.319a3.1,3.1,0,0,0-.926-2.21A3,3,0,0,0,18.566,8.213Z" transform="translate(0 0)" fill="#00d2d2"/>
  </g>
</svg>
