<svg id="ios-checkmark-circle-outline" xmlns="http://www.w3.org/2000/svg" width="21.366" height="21.366" viewBox="0 0 21.366 21.366">
  <path id="Trazado_72" data-name="Trazado 72" d="M159.3,174.6l-.9-.939a.191.191,0,0,0-.142-.062.183.183,0,0,0-.142.062l-6.208,6.375-2.259-2.3a.194.194,0,0,0-.285,0l-.906.923a.209.209,0,0,0,0,.3l2.849,2.9a.894.894,0,0,0,.6.3.938.938,0,0,0,.59-.285h.005l6.8-6.972A.225.225,0,0,0,159.3,174.6Z" transform="translate(-143.192 -167.191)" fill="#18a53d"/>
  <path id="Trazado_73" data-name="Trazado 73" d="M58.683,49.438a9.241,9.241,0,1,1-6.538,2.707,9.184,9.184,0,0,1,6.538-2.707m0-1.438A10.683,10.683,0,1,0,69.366,58.683,10.681,10.681,0,0,0,58.683,48Z" transform="translate(-48 -48)" fill="#18a53d"/>
</svg>
