<svg id="Grupo_39" data-name="Grupo 39" xmlns="http://www.w3.org/2000/svg" width="24.867" height="24.851" viewBox="0 0 24.867 24.851">
  <path id="Trazado_94" data-name="Trazado 94" d="M14.825,10.958a.637.637,0,0,0-.567.647v1.522h-.587a.637.637,0,0,0-.577.637v.527H11.512a.638.638,0,1,0,.06,1.274h1.522V16.7H11.571a.637.637,0,1,0,0,1.274h1.522v3.562H11.512a.638.638,0,0,0,.06,1.274h1.522v1.144H11.512a.638.638,0,0,0,.06,1.274h1.522v3.562H11.512a.638.638,0,1,0,.06,1.274h1.522v1.144H11.512a.638.638,0,0,0,.06,1.274h1.522v.527a.637.637,0,0,0,.637.637h.527v1.522a.637.637,0,1,0,1.274,0V33.645h1.144v1.522a.637.637,0,1,0,1.274,0V33.645h3.562v1.522a.637.637,0,1,0,1.274,0V33.645H23.92v1.522a.637.637,0,1,0,1.274,0V33.645h3.562v1.522a.637.637,0,1,0,1.274,0V33.645h1.144v1.522a.637.637,0,1,0,1.274,0V33.645h.527a.637.637,0,0,0,.637-.637v-.527h1.522a.637.637,0,1,0,0-1.274H33.611V30.063h1.522a.637.637,0,1,0,0-1.274H33.611V25.227h1.522a.637.637,0,1,0,0-1.274H33.611V22.809h1.522a.637.637,0,1,0,0-1.274H33.611V17.973h1.522a.637.637,0,1,0,0-1.274H33.611V15.565h1.522a.637.637,0,1,0,0-1.274H33.611v-.527a.637.637,0,0,0-.637-.637h-.527V11.6a.637.637,0,1,0-1.274,0v1.522H30.029V11.6a.637.637,0,1,0-1.274,0v1.522H25.193V11.6a.637.637,0,1,0-1.274,0v1.522H22.785V11.6a.637.637,0,1,0-1.274,0v1.522H17.95V11.6a.637.637,0,1,0-1.274,0v1.522H15.532V11.6a.637.637,0,0,0-.706-.647ZM14.367,14.4h17.97v17.97H14.367Zm3.6,2.955a.637.637,0,0,0-.637.637V28.769a.637.637,0,0,0,.637.637H28.736a.637.637,0,0,0,.637-.637V17.993a.637.637,0,0,0-.637-.637Zm.637,1.274H28.1v9.5H18.606Z" transform="translate(-10.904 -10.953)" fill="#00d2d2"/>
</svg>
