<svg id="noun_LED_3025379" xmlns="http://www.w3.org/2000/svg" width="21.994" height="30.908" viewBox="0 0 21.994 30.908">
  <g id="Grupo_32" data-name="Grupo 32" transform="translate(0 0)">
    <path id="Trazado_91" data-name="Trazado 91" d="M262.811,230.513H244.1v-7.958a9.355,9.355,0,1,1,18.711,0Zm-16.619-2.091h14.532v-5.866a7.264,7.264,0,1,0-14.528,0v5.87Z" transform="translate(-242.423 -208.055)" fill="#00d2d2"/>
    <path id="Trazado_92" data-name="Trazado 92" d="M216.656,655.263H197.373A1.382,1.382,0,0,1,196,653.907v-2.562A1.361,1.361,0,0,1,197.373,650h19.282a1.343,1.343,0,0,1,1.338,1.345v2.562A1.349,1.349,0,0,1,216.656,655.263Zm-18.564-2.091H215.9v-1.081H198.091Z" transform="translate(-196 -629.63)" fill="#00d2d2"/>
    <rect id="Rectángulo_23" data-name="Rectángulo 23" width="2.248" height="3.934" transform="translate(15.251 24.726)" fill="#00d2d2"/>
    <rect id="Rectángulo_24" data-name="Rectángulo 24" width="2.248" height="6.182" transform="translate(4.573 24.726)" fill="#00d2d2"/>
    <rect id="Rectángulo_25" data-name="Rectángulo 25" width="1.686" height="3.372" transform="translate(10.193 0)" fill="#00d2d2"/>
    <rect id="Rectángulo_26" data-name="Rectángulo 26" width="3.067" height="2.091" transform="translate(2.921 2.821) rotate(45)" fill="#00d2d2"/>
    <rect id="Rectángulo_27" data-name="Rectángulo 27" width="2.091" height="3.067" transform="translate(19.115 2.821) rotate(45)" fill="#00d2d2"/>
    <path id="Trazado_93" data-name="Trazado 93" d="M357.791,326.465H355.7A5.472,5.472,0,0,1,361.165,321v2.091A3.379,3.379,0,0,0,357.791,326.465Z" transform="translate(-350.134 -312.098)" fill="#00d2d2"/>
  </g>
</svg>
