<svg xmlns="http://www.w3.org/2000/svg" width="18.705" height="15.192" viewBox="0 0 18.705 15.192">
  <path id="twitter" d="M16.783,51.868c.012.166.012.332.012.5A10.833,10.833,0,0,1,5.887,63.274,10.833,10.833,0,0,1,0,61.553a7.931,7.931,0,0,0,.926.047,7.678,7.678,0,0,0,4.759-1.638A3.84,3.84,0,0,1,2.1,57.3a4.834,4.834,0,0,0,.724.059,4.055,4.055,0,0,0,1.009-.131A3.834,3.834,0,0,1,.76,53.47v-.047a3.861,3.861,0,0,0,1.733.487,3.839,3.839,0,0,1-1.187-5.127,10.9,10.9,0,0,0,7.9,4.012,4.328,4.328,0,0,1-.095-.878,3.837,3.837,0,0,1,6.635-2.623,7.548,7.548,0,0,0,2.433-.926A3.823,3.823,0,0,1,16.5,50.48a7.685,7.685,0,0,0,2.208-.593A8.241,8.241,0,0,1,16.783,51.868Z" transform="translate(0 -48.082)" fill="#4f4f4f"/>
</svg>
