<svg xmlns="http://www.w3.org/2000/svg" width="26.5" height="26.5" viewBox="0 0 26.5 26.5">
  <g id="noun_USB_to_USB_914475" data-name="noun_USB to USB_914475" transform="translate(28 -21.965)">
    <g id="Grupo_64" data-name="Grupo 64" transform="translate(-28 21.965)">
      <g id="Grupo_63" data-name="Grupo 63" transform="translate(0 0)">
        <g id="Grupo_62" data-name="Grupo 62" transform="translate(0 0)">
          <path id="Trazado_109" data-name="Trazado 109" d="M3.883,5.3V1.329A.442.442,0,0,1,4.325.887H8.742a.442.442,0,0,1,.442.442V5.3Zm5.742.883a.442.442,0,0,0,.442-.442V1.329A1.325,1.325,0,0,0,8.742,0H4.325A1.325,1.325,0,0,0,3,1.329V5.745a.442.442,0,0,0,.442.442Z" transform="translate(-1.675 -0.004)" fill="#00d2d2" fill-rule="evenodd"/>
          <path id="Trazado_110" data-name="Trazado 110" d="M.883,23.487v-10.6h7.95v10.6Zm7.95.883a.883.883,0,0,0,.883-.883v-10.6A.883.883,0,0,0,8.833,12H.883A.883.883,0,0,0,0,12.887v10.6a.883.883,0,0,0,.883.883Z" transform="translate(0 -6.704)" fill="#00d2d2" fill-rule="evenodd"/>
          <path id="Trazado_111" data-name="Trazado 111" d="M6.883,38.887h2.65v1.325H6.883ZM9.533,41.1a.883.883,0,0,0,.883-.883V38.445A.442.442,0,0,0,9.975,38H6.442A.442.442,0,0,0,6,38.445v1.767a.883.883,0,0,0,.883.883Z" transform="translate(-3.35 -21.22)" fill="#00d2d2" fill-rule="evenodd"/>
          <path id="Trazado_112" data-name="Trazado 112" d="M36.442,7.954h8.833a.442.442,0,0,0,.442-.442V.446A.442.442,0,0,0,45.275,0H36.442A.442.442,0,0,0,36,.446V7.512A.442.442,0,0,0,36.442,7.954ZM36.883.887h7.95V7.071h-7.95Z" transform="translate(-20.1 -0.004)" fill="#00d2d2" fill-rule="evenodd"/>
          <path id="Trazado_113" data-name="Trazado 113" d="M34.883,25.72V16.887H44.6V25.72ZM44.6,26.6a.883.883,0,0,0,.883-.883V16.887A.883.883,0,0,0,44.6,16H34.883a.883.883,0,0,0-.883.883V25.72a.883.883,0,0,0,.883.883Z" transform="translate(-18.983 -8.937)" fill="#00d2d2" fill-rule="evenodd"/>
          <path id="Trazado_114" data-name="Trazado 114" d="M42.883,38.887h2.65v1.325h-2.65Zm2.65,2.208a.883.883,0,0,0,.883-.883V38.445A.442.442,0,0,0,45.975,38H42.442a.442.442,0,0,0-.442.442v1.767a.883.883,0,0,0,.883.883Z" transform="translate(-23.45 -21.22)" fill="#00d2d2" fill-rule="evenodd"/>
          <path id="Trazado_115" data-name="Trazado 115" d="M40.442,8.654h1.767a.442.442,0,0,0,.442-.442V6.446A.442.442,0,0,0,42.208,6H40.442A.442.442,0,0,0,40,6.446V8.212A.442.442,0,0,0,40.442,8.654Zm.442-.883V6.887h.883v.883Z" transform="translate(-22.333 -3.354)" fill="#00d2d2" fill-rule="evenodd"/>
          <path id="Trazado_116" data-name="Trazado 116" d="M48.442,8.654h1.767a.442.442,0,0,0,.442-.442V6.446A.442.442,0,0,0,50.208,6H48.442A.442.442,0,0,0,48,6.446V8.212A.442.442,0,0,0,48.442,8.654Zm.442-.883V6.887h.883v.883Z" transform="translate(-26.8 -3.354)" fill="#00d2d2" fill-rule="evenodd"/>
          <path id="Trazado_117" data-name="Trazado 117" d="M10.65,45.224V43.445A.442.442,0,0,0,10.208,43H8.442A.442.442,0,0,0,8,43.445v1.779a5.3,5.3,0,0,0,5.3,5.288h7.95a5.3,5.3,0,0,0,5.3-5.294V43.445A.442.442,0,0,0,26.108,43H24.342a.442.442,0,0,0-.442.442v1.772a2.648,2.648,0,0,1-2.65,2.644H13.3A2.644,2.644,0,0,1,10.65,45.224Zm15.017-1.337v1.331a4.417,4.417,0,0,1-4.417,4.411H13.3a4.412,4.412,0,0,1-4.417-4.4V43.887h.883v1.337A3.527,3.527,0,0,0,13.3,48.745h7.95a3.532,3.532,0,0,0,3.533-3.528V43.887Z" transform="translate(-4.467 -24.012)" fill="#00d2d2" fill-rule="evenodd"/>
        </g>
      </g>
    </g>
  </g>
</svg>
